<svg width="122.842392" height="29.257812" viewBox="0 0 122.842 29.2578" fill="none" xmlns="http://www.w3.org/2000/svg" xmlns:xlink="http://www.w3.org/1999/xlink">
	<desc>
			Created with Pixso.
	</desc>
	<defs>
		<filter id="filter_14_4829_dd" x="0.000000" y="2.548828" width="122.842392" height="26.708984" filterUnits="userSpaceOnUse" color-interpolation-filters="sRGB">
			<feFlood flood-opacity="0" result="BackgroundImageFix"/>
			<feColorMatrix in="SourceAlpha" type="matrix" values="0 0 0 0 0 0 0 0 0 0 0 0 0 0 0 0 0 0 127 0" result="hardAlpha"/>
			<feOffset dx="0" dy="4"/>
			<feGaussianBlur stdDeviation="1.33333"/>
			<feComposite in2="hardAlpha" operator="out" k2="-1" k3="1"/>
			<feColorMatrix type="matrix" values="0 0 0 0 0 0 0 0 0 0 0 0 0 0 0 0 0 0 0.25 0"/>
			<feBlend mode="normal" in2="BackgroundImageFix" result="effect_dropShadow_1"/>
			<feBlend mode="normal" in="SourceGraphic" in2="effect_dropShadow_1" result="shape"/>
		</filter>
	</defs>
	<rect id="Logo" width="118.000000" height="24.000000" transform="translate(2.482422 0.000000)" fill="#FFFFFF" fill-opacity="0"/>
	<g filter="url(#filter_14_4829_dd)">
		<path id="Exclusive" d="M89.06 4.38C89.06 5.39 88.17 6.22 87.09 6.22C86.01 6.22 85.13 5.39 85.13 4.38C85.13 3.37 86.01 2.54 87.09 2.54C88.17 2.54 89.06 3.37 89.06 4.38ZM15.79 21L4 21L4 3.54L15.75 3.54L15.75 6.58L7.69 6.58L7.69 10.74L15.15 10.74L15.15 13.78L7.69 13.78L7.69 17.95L15.79 17.95L15.79 21ZM48.17 3.54L51.8 3.54L51.8 21L48.17 21L48.17 3.54ZM45.12 16.2C44.94 19.21 42.76 21.25 39.27 21.25C35.24 21.25 32.83 18.48 32.83 14.5C32.83 10.49 35.28 7.74 39.25 7.74C42.67 7.74 44.96 9.72 45.12 12.75L41.69 12.75C41.49 11.44 40.64 10.57 39.31 10.57C37.62 10.57 36.52 11.98 36.52 14.45C36.52 16.96 37.62 18.38 39.31 18.38C40.55 18.38 41.47 17.6 41.69 16.2L45.12 16.2ZM76.38 7.74C79.69 7.74 81.63 9.22 81.95 11.64L78.63 11.84C78.45 11 77.7 10.31 76.44 10.31C75.32 10.31 74.43 10.82 74.44 11.6C74.43 12.24 74.88 12.65 76.1 12.91L78.47 13.4C81.01 13.91 82.25 15.05 82.25 16.94C82.25 19.52 79.82 21.25 76.42 21.25C72.95 21.25 70.83 19.71 70.48 17.2L74.06 17.02C74.28 18.08 75.14 18.63 76.43 18.63C77.7 18.63 78.54 18.08 78.56 17.3C78.54 16.65 78.03 16.23 76.89 16L74.62 15.55C72.06 15.04 70.83 13.77 70.83 11.81C70.83 9.28 73.03 7.74 76.38 7.74ZM118.76 17.25C118.25 19.68 116.07 21.25 112.83 21.25C108.79 21.25 106.33 18.66 106.33 14.51C106.33 10.47 108.83 7.74 112.69 7.74C116.14 7.74 118.84 9.93 118.84 14.38L118.84 15.38L109.92 15.38L109.92 15.39C109.92 17.34 111.07 18.54 112.89 18.54C114.1 18.54 115.04 18.02 115.4 17.02L118.76 17.25ZM18.63 7.91L22.38 7.91L24.78 12.48L27.25 7.91L30.97 7.91L27.18 14.45L31.08 21L27.37 21L24.78 16.47L22.25 21L18.5 21L22.38 14.45L18.63 7.91ZM61.32 18.09C62.62 18.09 63.82 17.17 63.81 15.42L63.81 7.91L67.45 7.91L67.45 21L63.96 21L63.96 18.62L63.82 18.62C63.23 20.15 61.82 21.16 59.85 21.16C57.22 21.16 55.43 19.3 55.42 16.24L55.42 7.91L59.05 7.91L59.05 15.59C59.06 17.13 59.95 18.09 61.32 18.09ZM88.9 21L85.26 21L85.26 7.91L88.9 7.91L88.9 21ZM100.87 7.91L104.72 7.91L100.14 21L96.05 21L91.48 7.91L95.31 7.91L98.03 17.27L98.17 17.27L100.87 7.91ZM112.74 10.44C111.13 10.44 110 11.64 109.92 13.13L115.42 13.13C115.41 11.57 114.32 10.44 112.74 10.44Z" fill="#000000" fill-opacity="1.000000" fill-rule="evenodd"/>
		<path id="Exclusive" d="M4 21L15.79 21L15.79 17.95L7.69 17.95L7.69 13.78L15.15 13.78L15.15 10.74L7.69 10.74L7.69 6.58L15.75 6.58L15.75 3.54L4 3.54L4 21ZM22.38 7.91L18.63 7.91L22.38 14.45L18.5 21L22.25 21L24.78 16.47L27.37 21L31.08 21L27.18 14.45L30.97 7.91L27.25 7.91L24.78 12.48L22.38 7.91ZM39.27 21.25C42.76 21.25 44.94 19.21 45.12 16.2L41.69 16.2C41.47 17.6 40.55 18.38 39.31 18.38C37.62 18.38 36.52 16.96 36.52 14.45C36.52 11.98 37.62 10.57 39.31 10.57C40.64 10.57 41.49 11.44 41.69 12.75L45.12 12.75C44.96 9.72 42.67 7.74 39.25 7.74C35.28 7.74 32.83 10.49 32.83 14.5C32.83 18.48 35.24 21.25 39.27 21.25ZM51.8 3.54L48.17 3.54L48.17 21L51.8 21L51.8 3.54ZM63.81 15.42C63.82 17.17 62.62 18.09 61.32 18.09C59.95 18.09 59.06 17.13 59.05 15.59L59.05 7.91L55.42 7.91L55.42 16.24C55.43 19.3 57.22 21.16 59.85 21.16C61.82 21.16 63.23 20.15 63.82 18.62L63.96 18.62L63.96 21L67.45 21L67.45 7.91L63.81 7.91L63.81 15.42ZM81.95 11.64C81.63 9.22 79.69 7.74 76.38 7.74C73.03 7.74 70.83 9.28 70.83 11.81C70.83 13.77 72.06 15.04 74.62 15.55L76.89 16C78.03 16.23 78.54 16.65 78.56 17.3C78.54 18.08 77.7 18.63 76.43 18.63C75.14 18.63 74.28 18.08 74.06 17.02L70.48 17.2C70.83 19.71 72.95 21.25 76.42 21.25C79.82 21.25 82.25 19.52 82.25 16.94C82.25 15.05 81.01 13.91 78.47 13.4L76.1 12.91C74.88 12.65 74.43 12.24 74.44 11.6C74.43 10.82 75.32 10.31 76.44 10.31C77.7 10.31 78.45 11 78.63 11.84L81.95 11.64ZM85.26 21L88.9 21L88.9 7.91L85.26 7.91L85.26 21ZM87.09 6.22C88.17 6.22 89.06 5.39 89.06 4.38C89.06 3.37 88.17 2.54 87.09 2.54C86.01 2.54 85.13 3.37 85.13 4.38C85.13 5.39 86.01 6.22 87.09 6.22ZM104.72 7.91L100.87 7.91L98.17 17.27L98.03 17.27L95.31 7.91L91.48 7.91L96.05 21L100.14 21L104.72 7.91ZM112.83 21.25C116.07 21.25 118.25 19.68 118.76 17.25L115.4 17.02C115.04 18.02 114.1 18.54 112.89 18.54C111.07 18.54 109.92 17.34 109.92 15.39L109.92 15.38L118.84 15.38L118.84 14.38C118.84 9.93 116.14 7.74 112.69 7.74C108.83 7.74 106.33 10.47 106.33 14.51C106.33 18.66 108.79 21.25 112.83 21.25ZM109.92 13.13C110 11.64 111.13 10.44 112.74 10.44C114.32 10.44 115.41 11.57 115.42 13.13L109.92 13.13Z" stroke="#000000" stroke-opacity="1.000000" stroke-width="1.000000"/>
	</g>
</svg>
